<?xml version="1.0" standalone="no"?>
<!DOCTYPE svg PUBLIC "-//W3C//DTD SVG 20010904//EN"
 "http://www.w3.org/TR/2001/REC-SVG-20010904/DTD/svg10.dtd">
<svg version="1.0" xmlns="http://www.w3.org/2000/svg"
 width="6667.000000pt" height="6667.000000pt" viewBox="0 0 6667.000000 6667.000000"
 preserveAspectRatio="xMidYMid meet">

<g transform="translate(0.000000,6667.000000) scale(0.100000,-0.100000)"
fill="#000000" stroke="none">
<path d="M24840 59498 c-111 -16 -679 -116 -1044 -184 -3835 -716 -7683 -1929
-11295 -3559 -459 -207 -622 -308 -845 -524 -183 -178 -261 -285 -736 -1011
-1940 -2966 -3483 -5817 -4776 -8822 -2220 -5163 -3514 -10521 -3899 -16143
-37 -552 -71 -1252 -97 -2010 -17 -495 -17 -2462 0 -2975 38 -1174 91 -2130
172 -3130 56 -676 68 -780 121 -979 87 -331 240 -598 489 -855 143 -148 252
-235 620 -498 4422 -3153 9218 -5571 14290 -7203 739 -237 857 -270 1064 -296
137 -17 430 -6 560 20 378 77 710 257 995 540 138 136 213 232 463 586 855
1213 1570 2328 2200 3435 411 720 811 1479 893 1692 17 43 33 78 38 78 4 0
177 -42 385 -94 2382 -596 4750 -948 7167 -1066 547 -26 758 -32 1485 -37
1581 -11 2881 57 4425 233 1597 182 3364 508 4870 899 115 30 213 51 216 47 4
-4 24 -47 44 -97 44 -109 272 -556 460 -905 757 -1402 1666 -2850 2693 -4290
205 -287 261 -357 382 -478 498 -498 1147 -676 1850 -506 333 80 1856 590
2790 934 2489 917 4926 2033 7215 3303 1812 1006 3530 2100 5235 3335 304 221
389 290 504 414 219 235 368 520 440 839 68 307 204 1933 261 3139 67 1423 76
3087 25 4505 -270 7400 -2173 14527 -5671 21230 -912 1748 -1906 3432 -3044
5155 -518 786 -621 921 -849 1113 -186 158 -370 260 -856 475 -3696 1639
-7493 2825 -11290 3527 -850 157 -911 166 -1117 172 -270 8 -450 -17 -681 -94
-392 -129 -724 -385 -947 -728 -215 -329 -618 -1079 -950 -1765 -97 -201 -180
-368 -183 -372 -4 -4 -104 4 -222 17 -1195 135 -2411 222 -3875 277 -461 18
-2506 18 -2970 0 -1436 -54 -2790 -152 -3895 -282 -90 -10 -165 -18 -166 -17
-1 1 -107 216 -237 477 -323 650 -658 1288 -829 1577 -295 496 -775 816 -1349
898 -116 16 -423 18 -529 3z m-669 -4180 c192 -384 435 -904 681 -1458 99
-222 165 -346 250 -467 266 -379 698 -658 1163 -752 272 -55 487 -53 915 8
1553 221 3037 348 4810 413 461 17 2229 17 2690 0 1759 -64 3230 -190 4780
-407 407 -57 535 -65 746 -44 406 39 769 183 1056 416 99 81 263 256 341 364
82 114 137 225 642 1297 303 642 392 822 406 822 25 0 479 -95 889 -185 3010
-665 5997 -1645 8814 -2892 l109 -48 117 -175 c64 -96 200 -303 302 -460 1787
-2752 3250 -5523 4435 -8395 2050 -4969 3191 -10206 3403 -15605 45 -1154 45
-2552 0 -3705 -29 -728 -110 -2040 -146 -2343 l-6 -52 -222 -154 c-3121 -2163
-6421 -3928 -9884 -5286 -690 -270 -1201 -457 -2079 -760 l-112 -39 -209 317
c-226 342 -421 647 -622 972 -178 287 -400 658 -400 667 0 5 127 66 283 138
717 329 1649 811 2617 1352 462 259 584 345 791 561 279 290 448 625 504 998
22 141 22 414 1 551 -51 340 -177 636 -384 903 -133 172 -251 274 -896 780
-341 267 -654 509 -695 538 -242 170 -532 287 -836 338 -136 23 -415 23 -550
0 -239 -40 -367 -83 -717 -242 -2556 -1160 -5170 -1994 -7773 -2483 -2752
-516 -5578 -677 -8365 -476 -3927 284 -7645 1236 -11495 2942 -370 165 -488
208 -650 241 -273 56 -519 55 -784 -4 -328 -73 -591 -210 -911 -474 -276 -228
-612 -490 -970 -755 -465 -345 -744 -808 -811 -1348 -14 -121 -7 -409 14 -522
47 -248 129 -472 242 -660 163 -271 412 -517 676 -668 46 -27 190 -110 319
-184 607 -350 1069 -598 1705 -918 418 -209 645 -319 1129 -544 l108 -51 -18
-28 c-10 -15 -285 -452 -612 -972 -327 -520 -598 -949 -603 -954 -9 -10 -313
93 -884 299 -2198 793 -4303 1731 -6400 2853 -1114 595 -2243 1260 -3370 1982
-292 187 -1143 756 -1425 952 l-205 143 -7 85 c-15 175 -58 824 -73 1080 -113
2006 -108 3986 15 5930 303 4774 1316 9367 3027 13730 1102 2807 2466 5521
4146 8250 313 507 739 1175 990 1549 l76 114 168 74 c3065 1356 6128 2331
9458 3012 105 22 191 39 192 40 2 1 49 -90 104 -201z"/>
<path d="M23200 40960 c-587 -40 -1125 -144 -1668 -321 -1381 -453 -2566
-1309 -3461 -2500 -873 -1161 -1427 -2596 -1575 -4084 -54 -533 -54 -1120 0
-1655 161 -1622 804 -3179 1807 -4376 1154 -1378 2697 -2254 4397 -2498 518
-74 1112 -86 1620 -31 1579 171 2998 863 4165 2030 1201 1201 1964 2769 2215
4555 61 438 85 847 77 1330 -8 443 -32 750 -93 1140 -340 2202 -1517 4084
-3294 5267 -978 651 -2047 1025 -3240 1133 -159 15 -786 21 -950 10z m789
-3795 c700 -96 1319 -411 1846 -939 301 -301 524 -614 722 -1011 247 -494 387
-1011 434 -1598 15 -191 6 -684 -15 -867 -146 -1235 -678 -2228 -1546 -2885
-335 -253 -720 -440 -1105 -536 -902 -223 -1819 -13 -2583 593 -162 129 -460
427 -588 588 -809 1021 -1105 2391 -804 3730 140 627 431 1241 816 1725 112
140 399 428 531 532 371 294 723 479 1118 587 194 53 311 73 580 100 86 9 486
-4 594 -19z"/>
<path d="M42630 40959 c-1318 -93 -2560 -559 -3630 -1363 -512 -384 -1020
-888 -1418 -1405 -1219 -1586 -1810 -3659 -1626 -5706 137 -1530 683 -2975
1570 -4155 352 -468 814 -947 1269 -1316 1459 -1182 3242 -1716 5060 -1513
1512 168 2956 874 4080 1994 1198 1193 1973 2764 2224 4511 67 464 85 741 85
1274 0 463 -10 651 -54 1020 -233 1927 -1120 3646 -2535 4906 -320 286 -708
569 -1100 804 -197 118 -616 329 -825 417 -669 281 -1339 450 -2055 519 -199
19 -850 27 -1045 13z m820 -3794 c566 -77 1080 -296 1550 -661 136 -105 421
-385 544 -534 369 -446 648 -1000 790 -1571 136 -550 171 -1137 100 -1729 -99
-836 -409 -1593 -910 -2220 -126 -158 -378 -413 -517 -524 -1090 -869 -2530
-915 -3647 -116 -324 232 -644 557 -885 900 -631 900 -893 2087 -714 3235 160
1021 685 1977 1401 2552 497 399 1044 626 1643 682 137 13 505 5 645 -14z"/>
</g>
</svg>
