<?xml version="1.0" standalone="no"?>
<!DOCTYPE svg PUBLIC "-//W3C//DTD SVG 20010904//EN"
 "http://www.w3.org/TR/2001/REC-SVG-20010904/DTD/svg10.dtd">
<svg version="1.0" xmlns="http://www.w3.org/2000/svg"
 width="600.000000pt" height="600.000000pt" viewBox="0 0 600.000000 600.000000"
 preserveAspectRatio="xMidYMid meet">
<g transform="translate(0.000000,600.000000) scale(0.100000,-0.100000)"
fill="#000000" stroke="none">
<path d="M2889 5075 c-163 -30 -347 -105 -484 -198 -32 -22 -97 -77 -144 -121
-238 -228 -362 -510 -378 -866 -5 -116 -4 -127 15 -150 l20 -25 444 -3 c446
-3 578 3 693 33 179 46 361 143 498 265 258 230 404 529 437 895 11 121 11
129 -8 154 l-19 26 -499 2 c-386 1 -516 -2 -575 -12z m1021 -123 c0 -32 -7
-101 -16 -153 -45 -262 -155 -481 -338 -667 -142 -146 -296 -239 -492 -298
-88 -27 -94 -27 -532 -37 -272 -6 -451 -6 -463 -1 -19 9 -13 17 67 84 363 303
746 529 1109 655 83 29 118 55 108 81 -13 34 -38 34 -135 0 -375 -131 -761
-360 -1128 -669 -52 -44 -103 -87 -114 -96 -18 -16 -19 -14 -12 69 26 304 128
538 324 742 137 142 313 248 507 303 137 39 186 42 668 44 l447 1 0 -58z"/>
<path d="M1123 3570 c-21 -13 -35 -31 -42 -57 -14 -50 -14 -818 -1 -973 47
-532 310 -999 735 -1305 101 -73 310 -181 429 -220 463 -155 986 -86 1396 183
258 170 480 431 606 709 l44 98 134 7 c244 12 395 71 544 211 162 153 247 357
245 587 -1 139 -24 238 -84 356 -78 158 -194 271 -354 349 -167 80 -27 75
-1927 75 -1659 0 -1694 0 -1725 -20z m3528 -92 c113 -40 195 -92 279 -177 133
-135 200 -300 200 -496 0 -203 -66 -363 -209 -505 -153 -151 -282 -200 -525
-200 -78 0 -146 -4 -153 -8 -7 -4 -32 -54 -57 -111 -199 -457 -591 -798 -1055
-915 -156 -39 -258 -49 -436 -43 -239 8 -405 51 -620 157 -423 210 -736 602
-864 1080 -45 167 -51 260 -51 762 0 261 3 478 7 482 4 3 772 5 1707 4 l1701
-3 76 -27z"/>
<path d="M4338 3184 c-15 -17 -17 -59 -19 -381 -2 -285 0 -365 10 -377 20 -24
142 -21 225 4 87 27 172 104 218 198 31 63 33 73 33 177 0 98 -3 116 -27 167
-37 79 -108 152 -184 189 -52 26 -79 32 -151 36 -77 5 -90 3 -105 -13z m218
-93 c94 -42 163 -148 172 -262 12 -174 -104 -319 -271 -336 l-57 -6 0 318 0
318 57 -7 c31 -4 75 -15 99 -25z"/>
</g>
</svg>
