<?xml version="1.0" standalone="no"?>
<!DOCTYPE svg PUBLIC "-//W3C//DTD SVG 20010904//EN"
 "http://www.w3.org/TR/2001/REC-SVG-20010904/DTD/svg10.dtd">
<svg version="1.0" xmlns="http://www.w3.org/2000/svg"
 width="512.000000pt" height="512.000000pt" viewBox="0 0 512.000000 512.000000"
 preserveAspectRatio="xMidYMid meet">
<g transform="translate(0.000000,512.000000) scale(0.100000,-0.100000)"
fill="#000000" stroke="none">
<path d="M75 5093 c19 -30 473 -690 1375 -2003 304 -443 553 -810 553 -815 0
-6 -431 -512 -959 -1126 -527 -613 -965 -1123 -973 -1132 -13 -16 1 -17 206
-17 l220 0 849 987 c467 542 854 988 859 989 6 2 316 -442 689 -986 l679 -990
744 0 c593 0 743 3 737 13 -10 16 -29 44 -931 1357 -428 624 -848 1235 -932
1358 -134 196 -151 225 -139 239 12 16 979 1142 1367 1592 97 112 244 283 327
380 l151 176 -215 3 c-177 2 -218 0 -231 -12 -9 -8 -374 -431 -811 -939 -437
-509 -798 -923 -802 -921 -3 2 -295 425 -649 939 l-642 935 -745 0 -744 0 17
-27z m1516 -671 c245 -351 735 -1053 1969 -2817 859 -1229 890 -1273 890
-1279 0 -3 -151 -6 -335 -6 l-334 0 -69 98 c-38 53 -359 511 -712 1017 -906
1296 -1460 2088 -1932 2763 -224 321 -408 585 -408 588 0 2 152 4 338 4 l337
-1 256 -367z"/>
</g>
</svg>
